<svg width="18" height="21" viewBox="0 0 18 21" fill="none" xmlns="http://www.w3.org/2000/svg">
<path d="M12.0003 2.97852C12.0003 2.23395 11.4653 1.63056 10.7767 1.53809L10.637 1.52637C10.0937 1.50899 9.54797 1.5 9.00032 1.5C8.72635 1.5 8.45291 1.50247 8.18 1.50684L7.3636 1.52637C6.60904 1.55057 6.00032 2.1843 6.00032 2.97852V3.0918C6.9927 3.03153 7.99295 3 9.00032 3C10.0077 3 11.0079 3.03153 12.0003 3.0918V2.97852ZM9.00032 4.5C8.06823 4.5 7.14253 4.52687 6.22395 4.58008L5.30793 4.64258C4.38908 4.71359 3.4778 4.81177 2.57453 4.93457L3.58821 18.1152L3.60676 18.2598C3.73093 18.9698 4.34963 19.5 5.0843 19.5H12.9163C13.7001 19.5 14.3522 18.8966 14.4124 18.1152L15.4251 4.93457C14.8054 4.85034 14.1821 4.77677 13.555 4.7168L12.6927 4.64258C11.4745 4.54844 10.243 4.5 9.00032 4.5ZM6.23078 6.75098C6.64453 6.73506 6.99293 7.05703 7.00911 7.4707L7.35578 16.4707C7.3717 16.8845 7.0489 17.233 6.63508 17.249C6.22133 17.2649 5.87293 16.943 5.85676 16.5293L5.51008 7.5293C5.49417 7.1155 5.81704 6.76707 6.23078 6.75098ZM12.1439 16.5293C12.1277 16.943 11.7793 17.2649 11.3656 17.249C10.9517 17.233 10.6289 16.8845 10.6448 16.4707L12.1439 16.5293ZM11.7698 6.75098C12.1836 6.76707 12.5065 7.1155 12.4906 7.5293L12.1439 16.5293L10.6448 16.4707L10.9915 7.4707C11.0077 7.05703 11.3561 6.73506 11.7698 6.75098ZM13.5003 3.20605C14.455 3.29345 15.4021 3.40716 16.3402 3.54883L17.3782 3.71777L17.4534 3.73438C17.8193 3.83683 18.0556 4.20157 17.9896 4.58398C17.9189 4.99209 17.5305 5.26596 17.1224 5.19531C17.0526 5.18322 16.9823 5.17292 16.9124 5.16113L15.9075 18.2305C15.7871 19.7933 14.4838 21 12.9163 21H5.0843C3.61461 21 2.37715 19.9391 2.12922 18.5186L2.09309 18.2305L1.08723 5.16113C1.01763 5.17287 0.947743 5.18327 0.878246 5.19531C0.470141 5.26596 0.0817518 4.99209 0.0110581 4.58398C-0.0594217 4.17598 0.214369 3.78845 0.622386 3.71777C0.967227 3.65804 1.3132 3.60127 1.66047 3.54883L2.53645 3.4248C3.1871 3.3386 3.84188 3.26633 4.50032 3.20605V2.97852C4.50032 1.41405 5.71285 0.0786296 7.31575 0.0273438L8.15657 0.00683594C8.43729 0.00234732 8.71854 0 9.00032 0C9.56396 0 10.1255 0.00945056 10.6849 0.0273438L10.8343 0.0351562C12.3626 0.16173 13.5003 1.46303 13.5003 2.97852V3.20605Z" fill="#64748B"/>
</svg>
