<svg width="20" height="20" viewBox="0 0 20 20" fill="none" xmlns="http://www.w3.org/2000/svg">
<path d="M4.54831e-07 10.7502V10.2502C4.54831e-07 8.62482 -0.000763834 7.33979 0.119141 6.32538C0.241008 5.29446 0.496341 4.44543 1.07813 3.73651L1.23047 3.55975C1.38694 3.38715 1.55609 3.22625 1.73633 3.07831L1.87109 2.97284C2.55223 2.46492 3.35872 2.23357 4.3252 2.11932C5.33961 1.99942 6.62463 2.00018 8.25 2.00018C8.66421 2.00018 9 2.33597 9 2.75018C9 3.1644 8.66421 3.50018 8.25 3.50018C6.58789 3.50018 5.40689 3.5015 4.50098 3.60858C3.72307 3.70056 3.22281 3.86351 2.84375 4.12128L2.68848 4.23749C2.56503 4.33881 2.44895 4.44934 2.3418 4.56757L2.23731 4.68866C1.91138 5.08597 1.7135 5.61228 1.6084 6.50116C1.50132 7.40707 1.5 8.58807 1.5 10.2502V10.7502C1.5 12.6569 1.50149 14.0116 1.63965 15.0392C1.77492 16.0454 2.02896 16.6249 2.45215 17.048L2.61816 17.1994C3.02639 17.5334 3.58058 17.7422 4.46094 17.8605C5.48858 17.9987 6.84324 18.0002 8.75 18.0002H9.25C10.9121 18.0002 12.0931 17.9989 12.999 17.8918C13.8879 17.7867 14.4143 17.5888 14.8115 17.2629V17.2619L14.9326 17.1584C15.0508 17.0513 15.1614 16.9352 15.2627 16.8117L15.3789 16.6564C15.6366 16.2774 15.7996 15.7771 15.8916 14.9992C15.9987 14.0933 16 12.9123 16 11.2502C16 10.836 16.3358 10.5002 16.75 10.5002C17.1642 10.5002 17.5 10.836 17.5 11.2502C17.5 12.8756 17.5008 14.1606 17.3809 15.175C17.2666 16.1415 17.0352 16.9479 16.5273 17.6291L16.4219 17.7639C16.2246 18.0042 16.0033 18.2237 15.7627 18.4211L15.7637 18.4221C15.0548 19.0039 14.2057 19.2592 13.1748 19.381C12.1604 19.501 10.8753 19.5002 9.25 19.5002H8.75C6.88558 19.5002 5.41159 19.5016 4.26074 19.3469C3.16176 19.1991 2.25928 18.8979 1.53418 18.2443L1.3916 18.1086C0.64329 17.3603 0.310967 16.4117 0.153321 15.2394C-0.00141273 14.0886 4.53209e-07 12.6146 4.54831e-07 10.7502ZM14.8506 0.638856C15.9701 -0.274196 17.6216 -0.208358 18.665 0.835145L18.8613 1.05097C19.7134 2.09561 19.713 3.60381 18.8613 4.64862L18.665 4.86542L11.0156 12.5148C10.4874 13.0429 9.84268 13.4373 9.13477 13.6662L8.82812 13.7541L5.93164 14.4777C5.67613 14.5415 5.40596 14.4667 5.21973 14.2805C5.0335 14.0942 4.95867 13.8241 5.02246 13.5685L5.74609 10.6721L5.83398 10.3654C6.06289 9.65755 6.45722 9.0128 6.98535 8.48456L14.6348 0.835145L14.8506 0.638856ZM8.0459 9.54511C7.68588 9.90524 7.41769 10.3449 7.26172 10.8273L7.20117 11.0363L6.78027 12.7189L8.46387 12.299L8.67285 12.2385C9.15522 12.0826 9.59491 11.8143 9.95508 11.4543L16.084 5.32538L14.1748 3.4162L8.0459 9.54511ZM17.6045 1.89569C17.1103 1.40146 16.3282 1.37044 15.7979 1.80292L15.6953 1.89569L15.2354 2.35565L17.1445 4.26483L17.6045 3.80487L17.6973 3.70233C18.1009 3.20742 18.1008 2.49314 17.6973 1.99823L17.6045 1.89569Z" fill="#64748B"/>
</svg>
