<svg width="16" height="17" viewBox="0 0 16 17" fill="none" xmlns="http://www.w3.org/2000/svg">
<path d="M9.42325 13.0404C8.80659 13.0959 8.18232 13.125 7.5515 13.125C6.92047 13.125 6.29581 13.0959 5.67894 13.0404C5.67771 13.0684 5.6765 13.0966 5.6765 13.125C5.6765 14.1605 6.51597 15 7.5515 15C8.58704 15 9.4265 14.1605 9.4265 13.125C9.4265 13.0966 9.42449 13.0684 9.42325 13.0404ZM14.9416 10.8496C15.0803 11.0036 15.1336 11.2165 15.0841 11.4176C15.0344 11.6188 14.8886 11.7828 14.6942 11.8547L14.4778 11.2679L14.9416 10.8496ZM11.9265 5.625C11.9265 3.20875 9.96775 1.25 7.5515 1.25C5.13526 1.25 3.1765 3.20875 3.1765 5.625V6.25C3.1765 8.00728 2.61541 9.6334 1.6669 10.9627C2.81665 11.3288 4.0123 11.593 5.24437 11.7391C6.00062 11.8288 6.77063 11.875 7.5515 11.875C8.33243 11.875 9.10234 11.8288 9.85863 11.7391C11.0901 11.593 12.2853 11.3294 13.4345 10.9635C12.486 9.63423 11.9265 8.00725 11.9265 6.25V5.625ZM13.1765 6.25C13.1765 8.01916 13.8438 9.63091 14.9416 10.8496L14.477 11.2671L14.6942 11.8547C13.4073 12.3297 12.0595 12.6787 10.6667 12.8898C10.6725 12.9675 10.6765 13.0459 10.6765 13.125C10.6765 14.8509 9.27739 16.25 7.5515 16.25C5.82561 16.25 4.4265 14.8509 4.4265 13.125C4.4265 13.0462 4.4297 12.9681 4.43545 12.8906C3.04283 12.6795 1.6956 12.3297 0.408762 11.8547C0.214293 11.7829 0.0677992 11.6189 0.0181369 11.4176C-0.0313684 11.2165 0.0218892 11.0035 0.160552 10.8496C1.18992 9.70699 1.84106 8.21907 1.91836 6.57959L1.9265 6.25V5.625C1.9265 2.5184 4.4449 0 7.5515 0C10.6581 0 13.1765 2.5184 13.1765 5.625V6.25Z" fill="#64748B"/>
</svg>
