<svg width="16" height="16" viewBox="0 0 16 16" fill="none" xmlns="http://www.w3.org/2000/svg">
<path d="M4.33325 8.00065C4.33325 5.9756 5.97487 4.33398 7.99992 4.33398C10.025 4.33398 11.6666 5.9756 11.6666 8.00065C11.6666 10.0257 10.025 11.6673 7.99992 11.6673C5.97487 11.6673 4.33325 10.0257 4.33325 8.00065Z" fill="#E46A28"/>
<path fill-rule="evenodd" clip-rule="evenodd" d="M7.16375 1.99935C7.16375 1.53911 7.53688 1.16602 7.99708 1.16602H8.00308C8.46328 1.16602 8.83642 1.53911 8.83642 1.99935C8.83642 2.45959 8.46328 2.83268 8.00308 2.83268H7.99708C7.53688 2.83268 7.16375 2.45959 7.16375 1.99935ZM11.4059 3.75668C11.4059 3.29644 11.779 2.92334 12.2393 2.92334H12.2453C12.7055 2.92334 13.0786 3.29644 13.0786 3.75668C13.0786 4.21691 12.7055 4.59001 12.2453 4.59001H12.2393C11.779 4.59001 11.4059 4.21691 11.4059 3.75668ZM2.92281 3.757C2.92281 3.29676 3.2959 2.92366 3.75614 2.92366H3.76213C4.22236 2.92366 4.59546 3.29676 4.59546 3.757C4.59546 4.21724 4.22236 4.59033 3.76213 4.59033H3.75614C3.2959 4.59033 2.92281 4.21724 2.92281 3.757ZM1.16675 7.99975C1.16675 7.53948 1.53984 7.16642 2.00008 7.16642H2.00607C2.4663 7.16642 2.8394 7.53948 2.8394 7.99975C2.8394 8.45995 2.4663 8.83308 2.00607 8.83308H2.00008C1.53984 8.83308 1.16675 8.45995 1.16675 7.99975ZM13.1607 7.99975C13.1607 7.53948 13.5339 7.16642 13.9941 7.16642H14.0001C14.4603 7.16642 14.8334 7.53948 14.8334 7.99975C14.8334 8.45995 14.4603 8.83308 14.0001 8.83308H13.9941C13.5339 8.83308 13.1607 8.45995 13.1607 7.99975ZM2.92281 12.242C2.92281 11.7818 3.2959 11.4087 3.75614 11.4087H3.76213C4.22236 11.4087 4.59546 11.7818 4.59546 12.242C4.59546 12.7023 4.22236 13.0753 3.76213 13.0753H3.75614C3.2959 13.0753 2.92281 12.7023 2.92281 12.242ZM11.4055 12.2423C11.4055 11.7821 11.7787 11.409 12.2389 11.409H12.2449C12.7051 11.409 13.0782 11.7821 13.0782 12.2423C13.0782 12.7026 12.7051 13.0757 12.2449 13.0757H12.2389C11.7787 13.0757 11.4055 12.7026 11.4055 12.2423ZM7.16415 13.9993C7.16415 13.5391 7.53722 13.166 7.99748 13.166H8.00348C8.46368 13.166 8.83681 13.5391 8.83681 13.9993C8.83681 14.4596 8.46368 14.8327 8.00348 14.8327H7.99748C7.53722 14.8327 7.16415 14.4596 7.16415 13.9993Z" fill="#E46A28"/>
</svg>
